<svg width="24" height="24" viewBox="0 0 24 24" fill="none" xmlns="http://www.w3.org/2000/svg">
<path d="M9.555 12.69C11.145 12.69 12.405 13.83 12.405 15.375C12.405 16.89 11.175 18.12 9.6 18.12C8.07 18.12 6.825 16.95 6.825 15.51L7.83 15.495C7.83 16.44 8.64 17.175 9.6 17.175C10.62 17.175 11.43 16.35 11.43 15.33C11.43 14.325 10.62 13.65 9.615 13.65H7.455L10.32 9.945H6.825V9H12.195L9.315 12.69H9.555ZM15.4444 18V9.96H13.9444V9H16.4044V18H15.4444Z" fill="black"/>
<rect x="0.5" y="0.5" width="23" height="23" stroke="black"/>
<path d="M0 6H23.5" stroke="black"/>
</svg>
